<svg viewBox="0 0 305 153" fill="none" xmlns="http://www.w3.org/2000/svg">
	<path d="M59.0425 38.8517H90.9247L63.2467 152.5H27.6858L0.0078125 38.8517H31.89L45.3787 114.794L59.0425 38.8517Z" fill="#5E4FA2"/>
	<path d="M102.697 34.149H133.353V152.5H102.697V34.149Z" fill="#5E4FA2"/>
	<path d="M188.529 126.478V110.369C188.529 107.772 187.069 106.474 184.15 106.474H167.333C158.691 106.474 152.559 104.586 148.939 100.809C145.436 96.915 143.684 91.3683 143.684 84.1694V60.8024C143.684 46.1686 152.209 38.8517 169.26 38.8517H193.259C210.309 38.8517 218.835 46.1686 218.835 60.8024V74.4332H188.179V64.8739C188.179 62.2776 186.719 60.9795 183.799 60.9795H178.719C175.8 60.9795 174.34 62.2776 174.34 64.8739V81.6911C174.34 84.2874 175.8 85.5856 178.719 85.5856H195.186C203.828 85.5856 209.959 87.4148 213.579 91.0732C217.317 94.7317 219.185 100.101 219.185 107.182V130.549C219.185 145.183 210.66 152.5 193.609 152.5H169.785C152.618 152.5 144.034 145.183 144.034 130.549V116.919H174.69V126.478C174.69 129.074 176.15 130.372 179.07 130.372H184.15C187.069 130.372 188.529 129.074 188.529 126.478Z" fill="#5E4FA2"/>
	<path d="M265.644 130.372H304.008V152.5H234.988V38.8517H302.431V60.9795H265.644V84.1694H297.351V106.297H265.644V130.372Z" fill="#5E4FA2"/>
	<path d="M113.93 3.36296C115.513 1.76035 116.304 0.959047 117.222 0.673081C117.963 0.442306 118.755 0.442306 119.496 0.673081C120.414 0.959047 121.205 1.76035 122.788 3.36296L142.488 23.3095C145.917 26.7814 147.632 28.5173 147.713 30.0137C147.778 31.2016 147.307 32.3551 146.432 33.1489C145.331 34.149 142.907 34.149 138.059 34.149H98.6586C93.811 34.149 91.3872 34.149 90.2855 33.1489C89.411 32.3551 88.9397 31.2016 89.0045 30.0137C89.0862 28.5173 90.8007 26.7814 94.2297 23.3095L113.93 3.36296Z" fill="#5E4FA2"/>
</svg>
